<?xml version="1.0" encoding="utf-8"?>
<!-- Generator: Adobe Illustrator 15.0.0, SVG Export Plug-In . SVG Version: 6.00 Build 0)  -->
<!DOCTYPE svg PUBLIC "-//W3C//DTD SVG 1.1//EN" "http://www.w3.org/Graphics/SVG/1.1/DTD/svg11.dtd">
<svg version="1.1" id="Capa_1" xmlns="http://www.w3.org/2000/svg" xmlns:xlink="http://www.w3.org/1999/xlink" x="0px" y="0px"
	 width="250px" height="100px" viewBox="0 0 250 100" enable-background="new 0 0 250 100" xml:space="preserve">
<g>
	<g>
		<path fill-rule="evenodd" clip-rule="evenodd" fill="#333333" d="M72.36,49.082c0-2.374-1.174-3.412-3.626-4.196
			c-1.048-0.339-2.327-0.635-2.327-1.462c0-0.679,0.42-0.975,1.049-0.975h0.355c0.714,0,1.238,0.381,1.614,1.102
			c0.084,0.17,0.272,0.17,0.419,0.063l2.18-1.461c0.21-0.127,0.126-0.339,0.042-0.466c-0.272-0.466-0.609-0.89-1.006-1.229
			c-0.817-0.72-1.928-1.122-3.291-1.122h-0.314c-2.871,0-4.611,1.567-4.611,4.195c0,2.352,1.258,3.283,3.501,4.068
			c1.404,0.487,2.452,0.613,2.452,1.567c0,0.614-0.418,0.975-1.069,0.975h-0.65c-0.712,0-1.236-0.381-1.614-1.103
			c-0.083-0.168-0.272-0.168-0.419-0.062l-2.18,1.462c-0.211,0.126-0.125,0.317-0.042,0.445c0.231,0.402,0.504,0.762,0.838,1.081
			c0.838,0.826,2.013,1.292,3.458,1.292h0.65C70.725,53.255,72.36,51.688,72.36,49.082z"/>
		<g>
			<path fill-rule="evenodd" clip-rule="evenodd" fill="#333333" d="M100.078,52.766V39.785c0-0.169-0.146-0.211-0.231-0.211h-3.08
				c-0.104,0-0.188,0.042-0.188,0.211v12.981c0,0.171,0.083,0.214,0.188,0.214h3.08C99.973,52.98,100.078,52.937,100.078,52.766z"/>
			<path fill-rule="evenodd" clip-rule="evenodd" fill="#333333" d="M95.121,42.506v-2.721c0-0.169-0.125-0.211-0.21-0.211h-8.716
				c-0.105,0-0.189,0.042-0.189,0.211v12.981c0,0.171,0.083,0.214,0.189,0.214h3.1c0.105,0,0.209-0.043,0.209-0.214v-4.78
				c0-0.148,0.064-0.233,0.252-0.233h4.233c0.104,0,0.209-0.043,0.209-0.192v-2.74c0-0.149-0.105-0.19-0.209-0.19h-4.233
				c-0.188,0-0.252-0.085-0.252-0.234v-1.467c0-0.147,0.064-0.232,0.252-0.232h5.154C95.037,42.697,95.121,42.654,95.121,42.506z"/>
		</g>
		<path fill-rule="evenodd" clip-rule="evenodd" fill="#333333" d="M108.083,48.393c0.021,0.107-0.042,0.192-0.188,0.192h-1.217
			c-0.168,0-0.231-0.085-0.21-0.192l0.378-1.655c0.294-1.252,0.44-2.611,0.44-2.611h0.064c0,0,0.146,1.359,0.398,2.611
			L108.083,48.393z M113.014,52.703l-4.385-12.971c-0.042-0.128-0.105-0.148-0.189-0.148h-2.287c-0.126,0-0.168,0.042-0.209,0.148
			l-4.385,12.971c-0.064,0.17,0.02,0.277,0.209,0.277h3.23c0.105,0,0.148-0.043,0.189-0.148l0.566-1.593
			c0.043-0.106,0.084-0.148,0.252-0.148h2.518c0.167,0,0.23,0.042,0.273,0.148l0.545,1.593c0.041,0.105,0.062,0.148,0.188,0.148
			h3.295C113.056,52.98,113.077,52.873,113.014,52.703z"/>
		<path fill-rule="evenodd" clip-rule="evenodd" fill="#333333" d="M46.371,52.734V39.787c0-0.169-0.125-0.212-0.21-0.212h-2.955
			c-0.125,0-0.189,0.043-0.189,0.212v3.432c0,1.886,0.105,3.539,0.105,3.539H43.06c0,0-0.168-0.465-0.462-1.016l-3.102-5.975
			c-0.062-0.128-0.147-0.192-0.273-0.192h-2.661c-0.105,0-0.188,0.043-0.188,0.212v12.947c0,0.168,0.083,0.211,0.188,0.211h3.018
			c0.125,0,0.21-0.043,0.21-0.211v-3.369c0-1.738-0.127-3.412-0.127-3.412h0.084c0,0,0.167,0.467,0.44,0.954l3.123,5.848
			c0.063,0.105,0.125,0.191,0.231,0.191h2.619C46.287,52.945,46.371,52.902,46.371,52.734z"/>
		<path fill-rule="evenodd" clip-rule="evenodd" fill="#333333" d="M34.351,52.734V39.787c0-0.169-0.146-0.212-0.231-0.212h-3.08
			c-0.105,0-0.189,0.043-0.189,0.212v12.947c0,0.168,0.084,0.211,0.189,0.211h3.08C34.246,52.945,34.351,52.902,34.351,52.734z"/>
		<path fill-rule="evenodd" clip-rule="evenodd" fill="#333333" d="M80.861,49.271c0,0.508-0.377,0.869-1.028,0.869h-1.467
			c-0.733,0-1.111-0.339-1.111-0.869v-5.954c0-0.445,0.503-0.89,1.111-0.89h1.467c0.608,0,1.028,0.381,1.028,0.89V49.271z
			 M84.34,49.271v-5.954c0-2.416-1.823-3.983-4.506-3.983h-1.467c-2.682,0-4.548,1.589-4.548,3.983v5.954
			c0,2.395,1.824,3.984,4.548,3.984h1.467C82.517,53.255,84.34,51.666,84.34,49.271z"/>
		<path fill-rule="evenodd" clip-rule="evenodd" fill="#333333" d="M54.264,48.369c0.021,0.105-0.042,0.19-0.188,0.19H52.86
			c-0.167,0-0.23-0.085-0.21-0.19l0.377-1.652c0.293-1.251,0.44-2.607,0.44-2.607h0.063c0,0,0.146,1.356,0.398,2.607L54.264,48.369z
			 M59.189,52.669l-4.38-12.946c-0.042-0.127-0.105-0.148-0.188-0.148h-2.285c-0.125,0-0.167,0.043-0.21,0.148l-4.38,12.946
			c-0.062,0.17,0.021,0.276,0.21,0.276h3.227c0.105,0,0.147-0.043,0.189-0.149l0.565-1.589c0.042-0.105,0.084-0.148,0.251-0.148
			h2.515c0.168,0,0.231,0.043,0.273,0.148l0.545,1.589c0.042,0.106,0.063,0.149,0.189,0.149H59
			C59.231,52.945,59.252,52.839,59.189,52.669z"/>
		<path fill-rule="evenodd" clip-rule="evenodd" fill="#333333" d="M28.828,52.734v-2.713c0-0.148-0.105-0.19-0.209-0.19h-5.156
			c-0.189,0-0.251-0.084-0.251-0.233v-1.632c0-0.147,0.062-0.232,0.251-0.232h4.233c0.105,0,0.209-0.043,0.209-0.19v-2.733
			c0-0.149-0.104-0.19-0.209-0.19h-4.233c-0.189,0-0.251-0.085-0.251-0.234v-1.462c0-0.147,0.062-0.233,0.251-0.233h5.156
			c0.125,0,0.209-0.042,0.209-0.191v-2.711c0-0.169-0.126-0.212-0.209-0.212h-8.72c-0.104,0-0.188,0.043-0.188,0.212v12.947
			c0,0.168,0.084,0.211,0.188,0.211h8.72C28.744,52.945,28.828,52.902,28.828,52.734z"/>
		<path fill-rule="evenodd" clip-rule="evenodd" fill="#333333" d="M17.982,52.669l-2.055-5.318
			c-0.062-0.19-0.083-0.339,0.105-0.465c0.922-0.594,1.53-1.611,1.53-2.925V43.77c0-2.605-1.759-4.195-4.506-4.195H7.209
			c-0.105,0-0.189,0.043-0.189,0.212v12.947c0,0.168,0.084,0.211,0.189,0.211h3.101c0.105,0,0.21-0.043,0.21-0.211v-4.769
			c0-0.147,0.062-0.232,0.252-0.232h1.445c0.084,0,0.147,0.042,0.189,0.148l1.928,4.916c0.042,0.085,0.105,0.149,0.188,0.149h3.27
			C18.002,52.945,18.044,52.818,17.982,52.669z M14.104,43.982c0,0.572-0.398,0.847-1.048,0.847h-2.284
			c-0.189,0-0.252-0.084-0.252-0.233v-1.674c0-0.147,0.062-0.233,0.252-0.233h2.284c0.692,0,1.048,0.318,1.048,0.891V43.982z"/>
		<path fill-rule="evenodd" clip-rule="evenodd" fill="#333333" d="M76.108,13.917c0,1.712-1.272,2.848-3.146,2.848h-1.024
			c-1.903,0-3.176-1.135-3.176-2.848V9.659c0-1.713,1.303-2.848,3.176-2.848h1.024c1.875,0,3.146,1.121,3.146,2.848v0.816h-2.429
			V9.659c0-0.364-0.293-0.637-0.718-0.637h-1.024c-0.424,0-0.776,0.318-0.776,0.637v4.258c0,0.378,0.264,0.621,0.776,0.621h1.024
			c0.455,0,0.718-0.258,0.718-0.621V13.1h2.429V13.917z"/>
		<path fill-rule="evenodd" clip-rule="evenodd" fill="#333333" d="M15.736,16.439V7.174c0-0.122-0.059-0.151-0.146-0.151h-2.124
			c-0.059,0-0.117,0.029-0.147,0.09l-1.685,4.656c-0.117,0.333-0.19,0.606-0.19,0.606h-0.059c0,0-0.029-0.273-0.161-0.606
			L9.481,7.113c-0.029-0.061-0.088-0.09-0.146-0.09H7.152c-0.088,0-0.132,0.029-0.132,0.151v9.266c0,0.123,0.044,0.152,0.132,0.152
			h2.065c0.103,0,0.146-0.029,0.146-0.152v-1.987c0-1.439-0.132-2.759-0.132-2.759h0.044c0,0,0.132,0.637,0.366,1.32l0.776,2.289
			c0.044,0.122,0.176,0.151,0.264,0.151h1.421c0.088,0,0.206-0.03,0.249-0.151l0.777-2.244c0.234-0.683,0.366-1.365,0.366-1.365
			h0.044c0,0-0.103,1.365-0.103,2.791v1.956c0,0.123,0.03,0.152,0.132,0.152h2.021C15.678,16.591,15.736,16.562,15.736,16.439z"/>
		<path fill-rule="evenodd" clip-rule="evenodd" fill="#333333" d="M40.113,16.435v-1.942c0-0.106-0.073-0.137-0.146-0.137h-3.411
			c-0.132,0-0.176-0.06-0.176-0.167v-1.168c0-0.105,0.044-0.167,0.176-0.167h2.766c0.074,0,0.147-0.031,0.147-0.137v-1.955
			c0-0.107-0.073-0.138-0.147-0.138h-2.766c-0.132,0-0.176-0.061-0.176-0.167V9.412c0-0.105,0.044-0.166,0.176-0.166h3.411
			c0.088,0,0.146-0.031,0.146-0.137V7.168c0-0.122-0.088-0.152-0.146-0.152h-5.901c-0.074,0-0.132,0.03-0.132,0.152v9.267
			c0,0.12,0.058,0.15,0.132,0.15h5.901C40.055,16.585,40.113,16.555,40.113,16.435z"/>
		<path fill-rule="evenodd" clip-rule="evenodd" fill="#333333" d="M32.622,13.795c0-1.698-0.82-2.441-2.534-3.002
			c-0.732-0.242-1.626-0.455-1.626-1.046c0-0.485,0.293-0.697,0.732-0.697h0.249c0.499,0,0.864,0.273,1.128,0.789
			c0.059,0.12,0.191,0.12,0.293,0.045l1.524-1.046c0.146-0.09,0.087-0.243,0.029-0.333c-0.19-0.334-0.425-0.637-0.704-0.88
			c-0.571-0.515-1.347-0.803-2.3-0.803h-0.22c-2.007,0-3.224,1.122-3.224,3.002c0,1.682,0.879,2.35,2.448,2.911
			c0.981,0.349,1.713,0.441,1.713,1.124c0,0.439-0.292,0.696-0.747,0.696H28.93c-0.498,0-0.864-0.273-1.128-0.789
			c-0.059-0.12-0.19-0.12-0.293-0.045l-1.523,1.046c-0.146,0.091-0.088,0.228-0.029,0.319c0.161,0.287,0.352,0.545,0.586,0.773
			c0.586,0.592,1.406,0.926,2.417,0.926h0.454C31.479,16.783,32.622,15.66,32.622,13.795z"/>
		<path fill-rule="evenodd" clip-rule="evenodd" fill="#333333" d="M46.149,13.932c0,0.365-0.264,0.621-0.718,0.621h-1.025
			c-0.513,0-0.776-0.242-0.776-0.621V9.67c0-0.319,0.352-0.637,0.776-0.637h1.025c0.425,0,0.718,0.273,0.718,0.637V13.932z
			 M48.581,13.932V9.67c0-1.729-1.274-2.851-3.149-2.851h-1.025c-1.875,0-3.179,1.137-3.179,2.851v4.261
			c0,1.713,1.274,2.852,3.179,2.852h1.025C47.306,16.783,48.581,15.645,48.581,13.932z"/>
		<path fill-rule="evenodd" clip-rule="evenodd" fill="#333333" d="M24.78,13.938V7.174c0-0.122-0.044-0.151-0.132-0.151h-2.153
			c-0.073,0-0.132,0.029-0.132,0.151v6.764c0,0.379-0.22,0.623-0.732,0.623h-1.025c-0.542,0-0.776-0.243-0.776-0.623V7.174
			c0-0.122-0.073-0.151-0.132-0.151h-2.125c-0.088,0-0.131,0.029-0.131,0.151v6.764c0,1.713,1.26,2.852,3.164,2.852h1.025
			C23.505,16.789,24.78,15.651,24.78,13.938z"/>
		<path fill-rule="evenodd" clip-rule="evenodd" fill="#333333" d="M59.203,16.442V7.176c0-0.121-0.088-0.151-0.146-0.151H56.99
			c-0.088,0-0.131,0.03-0.131,0.151v2.457c0,1.35,0.073,2.533,0.073,2.533h-0.043c0,0-0.118-0.334-0.323-0.729l-2.168-4.277
			c-0.044-0.091-0.104-0.136-0.191-0.136h-1.859c-0.074,0-0.133,0.03-0.133,0.151v9.266c0,0.122,0.059,0.152,0.133,0.152h2.109
			c0.088,0,0.146-0.03,0.146-0.152v-2.411c0-1.244-0.088-2.441-0.088-2.441h0.059c0,0,0.117,0.334,0.307,0.682l2.184,4.187
			c0.044,0.075,0.088,0.135,0.161,0.135h1.832C59.144,16.594,59.203,16.564,59.203,16.442z"/>
		<path fill-rule="evenodd" clip-rule="evenodd" fill="#333333" d="M112.981,16.442v-1.94c0-0.107-0.073-0.138-0.146-0.138h-3.604
			c-0.131,0-0.176-0.061-0.176-0.166V7.176c0-0.121-0.088-0.151-0.146-0.151h-2.168c-0.073,0-0.132,0.03-0.132,0.151v9.266
			c0,0.122,0.059,0.152,0.132,0.152h6.094C112.922,16.594,112.981,16.564,112.981,16.442z"/>
		<path fill-rule="evenodd" clip-rule="evenodd" fill="#333333" d="M96.805,16.442V7.176c0-0.121-0.088-0.151-0.146-0.151h-2.065
			c-0.088,0-0.134,0.03-0.134,0.151v2.457c0,1.35,0.074,2.533,0.074,2.533H94.49c0,0-0.117-0.334-0.324-0.729l-2.168-4.277
			c-0.042-0.091-0.102-0.136-0.188-0.136h-1.862c-0.073,0-0.131,0.03-0.131,0.151v9.266c0,0.122,0.059,0.152,0.131,0.152h2.109
			c0.089,0,0.148-0.03,0.148-0.152v-2.411c0-1.244-0.089-2.441-0.089-2.441h0.06c0,0,0.116,0.334,0.307,0.682l2.184,4.187
			c0.044,0.075,0.088,0.135,0.16,0.135h1.832C96.746,16.594,96.805,16.564,96.805,16.442z"/>
		<path fill-rule="evenodd" clip-rule="evenodd" fill="#333333" d="M79.807,16.442V7.176c0-0.121-0.102-0.151-0.161-0.151h-2.153
			c-0.073,0-0.132,0.03-0.132,0.151v9.266c0,0.122,0.059,0.152,0.132,0.152h2.153C79.734,16.594,79.807,16.564,79.807,16.442z"/>
		<path fill-rule="evenodd" clip-rule="evenodd" fill="#333333" d="M102.068,13.318c0.014,0.076-0.029,0.137-0.132,0.137h-0.85
			c-0.117,0-0.161-0.061-0.146-0.137l0.263-1.183c0.206-0.895,0.308-1.866,0.308-1.866h0.044c0,0,0.103,0.971,0.278,1.866
			L102.068,13.318z M105.51,16.396l-3.062-9.266c-0.029-0.091-0.074-0.105-0.132-0.105h-1.597c-0.087,0-0.116,0.03-0.146,0.105
			l-3.062,9.266c-0.043,0.122,0.015,0.197,0.146,0.197h2.256c0.074,0,0.103-0.03,0.132-0.106l0.395-1.138
			c0.03-0.075,0.059-0.105,0.176-0.105h1.758c0.117,0,0.162,0.031,0.191,0.105l0.381,1.138c0.029,0.076,0.044,0.106,0.132,0.106h2.3
			C105.54,16.594,105.554,16.518,105.51,16.396z"/>
		<path fill-rule="evenodd" clip-rule="evenodd" fill="#333333" d="M85.927,13.94c0,0.363-0.264,0.621-0.718,0.621h-1.025
			c-0.512,0-0.776-0.241-0.776-0.621V9.679c0-0.319,0.352-0.638,0.776-0.638h1.025c0.425,0,0.718,0.273,0.718,0.638V13.94z
			 M88.359,13.94V9.679c0-1.73-1.275-2.853-3.15-2.853h-1.025c-1.876,0-3.18,1.138-3.18,2.853v4.261c0,1.713,1.275,2.851,3.18,2.851
			h1.025C87.084,16.791,88.359,15.653,88.359,13.94z"/>
		<path fill-rule="evenodd" clip-rule="evenodd" fill="#333333" d="M64.763,13.318c0.015,0.076-0.029,0.136-0.131,0.136h-0.851
			c-0.117,0-0.161-0.06-0.146-0.136l0.263-1.183c0.206-0.895,0.308-1.866,0.308-1.866h0.043c0,0,0.103,0.971,0.279,1.866
			L64.763,13.318z M68.207,16.396L65.145,7.13c-0.029-0.091-0.074-0.105-0.132-0.105h-1.597c-0.087,0-0.117,0.03-0.146,0.105
			l-3.062,9.266c-0.044,0.121,0.015,0.197,0.146,0.197h2.256c0.074,0,0.103-0.03,0.132-0.106l0.395-1.138
			c0.029-0.075,0.059-0.107,0.176-0.107h1.758c0.117,0,0.161,0.032,0.191,0.107l0.381,1.138c0.029,0.076,0.044,0.106,0.131,0.106
			h2.3C68.235,16.594,68.25,16.518,68.207,16.396z"/>
		<path fill-rule="evenodd" clip-rule="evenodd" fill="#333333" d="M14.375,25.986c0,1.712-1.273,2.849-3.146,2.849h-1.025
			c-1.902,0-3.176-1.137-3.176-2.849v-4.259c0-1.712,1.303-2.849,3.176-2.849h1.025c1.873,0,3.146,1.12,3.146,2.849v0.816h-2.429
			v-0.816c0-0.364-0.292-0.637-0.717-0.637h-1.025c-0.424,0-0.776,0.318-0.776,0.637v4.259c0,0.379,0.264,0.621,0.776,0.621h1.025
			c0.454,0,0.717-0.257,0.717-0.621v-0.816h2.429V25.986z"/>
		<path fill-rule="evenodd" clip-rule="evenodd" fill="#333333" d="M39.365,21.243v-1.942c0-0.121-0.087-0.152-0.131-0.152h-6.401
			c-0.073,0-0.146,0.031-0.146,0.152v1.942c0,0.105,0.073,0.136,0.146,0.136h1.794c0.161,0,0.19,0.061,0.19,0.167v7.023
			c0,0.123,0.059,0.152,0.132,0.152h2.153c0.073,0,0.146-0.03,0.146-0.152v-7.023c0-0.105,0.029-0.167,0.176-0.167h1.81
			C39.307,21.379,39.365,21.348,39.365,21.243z"/>
		<path fill-rule="evenodd" clip-rule="evenodd" fill="#333333" d="M31.216,28.568v-9.268c0-0.121-0.088-0.152-0.146-0.152h-2.065
			c-0.088,0-0.132,0.031-0.132,0.152v2.458c0,1.349,0.073,2.533,0.073,2.533h-0.044c0,0-0.117-0.333-0.322-0.728l-2.168-4.277
			c-0.044-0.091-0.103-0.137-0.19-0.137h-1.86c-0.073,0-0.132,0.031-0.132,0.152v9.268c0,0.123,0.059,0.152,0.132,0.152h2.109
			c0.088,0,0.146-0.03,0.146-0.152v-2.412c0-1.243-0.088-2.442-0.088-2.442h0.059c0,0,0.117,0.334,0.307,0.683l2.183,4.186
			c0.044,0.075,0.088,0.137,0.161,0.137h1.831C31.158,28.721,31.216,28.691,31.216,28.568z"/>
		<path fill-rule="evenodd" clip-rule="evenodd" fill="#333333" d="M54.516,25.987c0,0.365-0.264,0.623-0.718,0.623h-1.025
			c-0.513,0-0.776-0.243-0.776-0.623v-4.261c0-0.319,0.352-0.638,0.776-0.638h1.025c0.425,0,0.718,0.273,0.718,0.638V25.987z
			 M56.948,25.987v-4.261c0-1.73-1.274-2.853-3.149-2.853h-1.025c-1.875,0-3.179,1.138-3.179,2.853v4.261
			c0,1.714,1.274,2.853,3.179,2.853h1.025C55.673,28.84,56.948,27.701,56.948,25.987z"/>
		<path fill-rule="evenodd" clip-rule="evenodd" fill="#333333" d="M45.776,22.304c0,0.41-0.278,0.606-0.732,0.606h-1.597
			c-0.132,0-0.176-0.061-0.176-0.167v-1.199c0-0.105,0.044-0.167,0.176-0.167h1.597c0.483,0,0.732,0.227,0.732,0.637V22.304z
			 M48.486,28.523l-1.436-3.808c-0.044-0.136-0.059-0.241,0.073-0.334c0.645-0.423,1.069-1.151,1.069-2.092v-0.137
			c0-1.865-1.23-3.003-3.149-3.003h-4.087c-0.073,0-0.132,0.031-0.132,0.152v9.268c0,0.123,0.059,0.152,0.132,0.152h2.168
			c0.073,0,0.146-0.03,0.146-0.152v-3.414c0-0.105,0.044-0.165,0.176-0.165h1.011c0.059,0,0.103,0.03,0.132,0.105l1.348,3.519
			c0.029,0.062,0.073,0.107,0.132,0.107h2.285C48.5,28.721,48.53,28.629,48.486,28.523z"/>
		<path fill-rule="evenodd" clip-rule="evenodd" fill="#333333" d="M22.389,28.568v-1.941c0-0.105-0.073-0.136-0.146-0.136h-3.604
			c-0.132,0-0.176-0.061-0.176-0.167v-1.169c0-0.105,0.044-0.165,0.176-0.165h2.959c0.073,0,0.146-0.031,0.146-0.138v-1.957
			c0-0.105-0.073-0.135-0.146-0.135h-2.959c-0.132,0-0.176-0.061-0.176-0.168v-1.046c0-0.105,0.044-0.167,0.176-0.167h3.604
			c0.088,0,0.146-0.031,0.146-0.136v-1.942c0-0.121-0.088-0.152-0.146-0.152h-6.094c-0.073,0-0.132,0.031-0.132,0.152v9.268
			c0,0.123,0.059,0.152,0.132,0.152h6.094C22.331,28.721,22.389,28.691,22.389,28.568z"/>
		<path fill-rule="evenodd" clip-rule="evenodd" fill="#333333" d="M112.98,28.568v-1.941c0-0.105-0.074-0.136-0.147-0.136h-3.603
			c-0.132,0-0.176-0.06-0.176-0.167v-1.169c0-0.105,0.043-0.165,0.176-0.165h2.958c0.073,0,0.147-0.031,0.147-0.138v-1.957
			c0-0.105-0.074-0.135-0.147-0.135h-2.958c-0.132,0-0.176-0.061-0.176-0.168v-1.046c0-0.105,0.043-0.167,0.176-0.167h3.603
			c0.088,0,0.147-0.031,0.147-0.136v-1.942c0-0.121-0.088-0.152-0.147-0.152h-6.094c-0.072,0-0.132,0.031-0.132,0.152v9.268
			c0,0.123,0.06,0.152,0.132,0.152h6.094C112.922,28.721,112.98,28.691,112.98,28.568z"/>
		<path fill-rule="evenodd" clip-rule="evenodd" fill="#333333" d="M104.865,21.243v-1.942c0-0.121-0.088-0.152-0.131-0.152h-6.402
			c-0.074,0-0.146,0.031-0.146,0.152v1.942c0,0.105,0.073,0.136,0.146,0.136h1.795c0.16,0,0.189,0.061,0.189,0.167v7.023
			c0,0.123,0.059,0.152,0.131,0.152h2.155c0.071,0,0.145-0.03,0.145-0.152v-7.023c0-0.105,0.029-0.167,0.176-0.167h1.81
			C104.806,21.379,104.865,21.348,104.865,21.243z"/>
		<path fill-rule="evenodd" clip-rule="evenodd" fill="#333333" d="M76.639,28.568v-1.941c0-0.105-0.074-0.136-0.145-0.136h-3.605
			c-0.132,0-0.176-0.06-0.176-0.167v-1.169c0-0.105,0.043-0.165,0.176-0.165h2.96c0.071,0,0.145-0.031,0.145-0.138v-1.957
			c0-0.105-0.074-0.135-0.145-0.135h-2.96c-0.132,0-0.176-0.061-0.176-0.168v-1.046c0-0.105,0.043-0.167,0.176-0.167h3.605
			c0.086,0,0.145-0.031,0.145-0.136v-1.942c0-0.121-0.088-0.152-0.145-0.152H70.4c-0.074,0-0.132,0.031-0.132,0.152v9.268
			c0,0.123,0.059,0.152,0.132,0.152h6.094C76.58,28.721,76.639,28.691,76.639,28.568z"/>
		<path fill-rule="evenodd" clip-rule="evenodd" fill="#333333" d="M68.396,25.748v-3.596c0-1.865-1.23-3.003-3.149-3.003H61.16
			c-0.073,0-0.132,0.031-0.132,0.152v9.268c0,0.123,0.059,0.152,0.132,0.152h4.087C67.166,28.721,68.396,27.583,68.396,25.748z
			 M65.979,25.869c0,0.319-0.322,0.622-0.732,0.622H63.65c-0.132,0-0.175-0.06-0.175-0.167v-4.778c0-0.105,0.043-0.167,0.175-0.167
			h1.597c0.396,0,0.732,0.334,0.732,0.637V25.869z"/>
		<path fill-rule="evenodd" clip-rule="evenodd" fill="#333333" d="M94.768,22.304c0,0.41-0.279,0.606-0.732,0.606h-1.596
			c-0.133,0-0.176-0.06-0.176-0.167v-1.199c0-0.105,0.043-0.167,0.176-0.167h1.596c0.483,0,0.732,0.227,0.732,0.637V22.304z
			 M97.479,28.523l-1.437-3.807c-0.043-0.137-0.059-0.243,0.074-0.334c0.645-0.424,1.07-1.153,1.07-2.094v-0.137
			c0-1.865-1.23-3.003-3.15-3.003h-4.087c-0.073,0-0.131,0.031-0.131,0.152v9.268c0,0.123,0.059,0.152,0.131,0.152h2.168
			c0.074,0,0.148-0.03,0.148-0.152v-3.414c0-0.105,0.043-0.165,0.176-0.165h1.01c0.059,0,0.104,0.03,0.131,0.105l1.348,3.519
			c0.029,0.062,0.074,0.107,0.132,0.107h2.285C97.492,28.721,97.521,28.629,97.479,28.523z"/>
		<path fill-rule="evenodd" clip-rule="evenodd" fill="#333333" d="M85.117,25.445c0.015,0.075-0.029,0.135-0.132,0.135h-0.85
			c-0.117,0-0.161-0.06-0.146-0.135l0.264-1.184c0.205-0.896,0.308-1.866,0.308-1.866h0.043c0,0,0.103,0.97,0.278,1.866
			L85.117,25.445z M88.559,28.523l-3.061-9.268c-0.03-0.092-0.074-0.107-0.132-0.107h-1.597c-0.087,0-0.117,0.031-0.146,0.107
			l-3.062,9.268c-0.043,0.121,0.015,0.197,0.146,0.197h2.256c0.074,0,0.103-0.03,0.132-0.107l0.395-1.137
			c0.029-0.076,0.059-0.107,0.176-0.107h1.758c0.117,0,0.161,0.031,0.191,0.107l0.38,1.137c0.03,0.077,0.044,0.107,0.132,0.107h2.3
			C88.588,28.721,88.604,28.644,88.559,28.523z"/>
		<path fill-rule="evenodd" clip-rule="evenodd" fill="#333333" d="M0,0h120v60H0V0z M116.811,35.746H3.191v21.062h113.618
			L116.811,35.746z M3.19,32.555h113.619V3.193L3.192,3.191L3.19,32.555z"/>
	</g>
</g>
<g>
	<g>
		<path fill-rule="evenodd" clip-rule="evenodd" fill="#333333" d="M210.3,40.901c0-1.979-0.978-2.844-3.021-3.497
			c-0.873-0.282-1.939-0.529-1.939-1.218c0-0.565,0.351-0.812,0.874-0.812h0.297c0.594,0,1.03,0.318,1.345,0.918
			c0.07,0.143,0.228,0.143,0.35,0.053l1.816-1.218c0.174-0.106,0.105-0.283,0.034-0.389c-0.227-0.388-0.507-0.741-0.838-1.024
			c-0.681-0.6-1.606-0.935-2.742-0.935h-0.262c-2.393,0-3.843,1.306-3.843,3.496c0,1.959,1.049,2.736,2.917,3.39
			c1.171,0.406,2.043,0.511,2.043,1.306c0,0.512-0.349,0.812-0.891,0.812h-0.541c-0.594,0-1.03-0.317-1.345-0.918
			c-0.07-0.141-0.227-0.141-0.349-0.052l-1.816,1.219c-0.176,0.105-0.104,0.264-0.036,0.371c0.192,0.335,0.42,0.635,0.698,0.9
			c0.699,0.688,1.678,1.078,2.883,1.078h0.541C208.938,44.379,210.3,43.072,210.3,40.901z"/>
		<g>
			<path fill-rule="evenodd" clip-rule="evenodd" fill="#333333" d="M233.398,43.972V33.154c0-0.141-0.122-0.176-0.191-0.176h-2.567
				c-0.088,0-0.156,0.035-0.156,0.176v10.817c0,0.143,0.068,0.178,0.156,0.178h2.567C233.311,44.15,233.398,44.114,233.398,43.972z"
				/>
			<path fill-rule="evenodd" clip-rule="evenodd" fill="#333333" d="M229.268,35.421v-2.267c0-0.141-0.104-0.176-0.176-0.176h-7.264
				c-0.088,0-0.157,0.035-0.157,0.176v10.817c0,0.143,0.069,0.178,0.157,0.178h2.585c0.088,0,0.175-0.036,0.175-0.178v-3.982
				c0-0.125,0.052-0.195,0.209-0.195h3.528c0.087,0,0.175-0.036,0.175-0.16v-2.284c0-0.124-0.088-0.159-0.175-0.159h-3.528
				c-0.157,0-0.209-0.072-0.209-0.195v-1.222c0-0.123,0.052-0.194,0.209-0.194h4.295C229.198,35.581,229.268,35.545,229.268,35.421z
				"/>
		</g>
		<path fill-rule="evenodd" clip-rule="evenodd" fill="#333333" d="M240.068,40.328c0.019,0.089-0.034,0.16-0.156,0.16h-1.015
			c-0.139,0-0.191-0.071-0.176-0.16l0.316-1.379c0.244-1.043,0.366-2.176,0.366-2.176h0.054c0,0,0.122,1.133,0.332,2.176
			L240.068,40.328z M244.178,43.92l-3.654-10.81c-0.035-0.107-0.088-0.123-0.157-0.123h-1.905c-0.106,0-0.141,0.035-0.175,0.123
			l-3.653,10.81c-0.054,0.142,0.016,0.23,0.173,0.23h2.693c0.088,0,0.123-0.036,0.157-0.124l0.473-1.327
			c0.035-0.089,0.069-0.124,0.21-0.124h2.097c0.141,0,0.193,0.035,0.229,0.124l0.454,1.327c0.034,0.088,0.053,0.124,0.156,0.124
			h2.747C244.214,44.15,244.23,44.062,244.178,43.92z"/>
		<path fill-rule="evenodd" clip-rule="evenodd" fill="#333333" d="M188.642,43.945v-10.79c0-0.141-0.104-0.176-0.175-0.176h-2.462
			c-0.104,0-0.157,0.036-0.157,0.176v2.861c0,1.572,0.087,2.949,0.087,2.949h-0.052c0,0-0.14-0.388-0.385-0.847l-2.584-4.979
			c-0.053-0.107-0.123-0.16-0.228-0.16h-2.218c-0.087,0-0.157,0.036-0.157,0.176v10.79c0,0.141,0.069,0.176,0.157,0.176h2.515
			c0.104,0,0.175-0.035,0.175-0.176v-2.808c0-1.449-0.105-2.843-0.105-2.843h0.07c0,0,0.14,0.389,0.367,0.795l2.603,4.873
			c0.052,0.088,0.104,0.159,0.192,0.159h2.183C188.572,44.121,188.642,44.086,188.642,43.945z"/>
		<path fill-rule="evenodd" clip-rule="evenodd" fill="#333333" d="M178.625,43.945v-10.79c0-0.141-0.122-0.176-0.192-0.176h-2.567
			c-0.087,0-0.158,0.036-0.158,0.176v10.79c0,0.141,0.07,0.176,0.158,0.176h2.567C178.539,44.121,178.625,44.086,178.625,43.945z"/>
		<path fill-rule="evenodd" clip-rule="evenodd" fill="#333333" d="M217.384,41.06c0,0.424-0.313,0.724-0.855,0.724h-1.224
			c-0.609,0-0.925-0.282-0.925-0.724v-4.961c0-0.371,0.42-0.742,0.925-0.742h1.224c0.507,0,0.855,0.318,0.855,0.742V41.06z
			 M220.283,41.06v-4.961c0-2.013-1.519-3.319-3.755-3.319h-1.224c-2.234,0-3.79,1.324-3.79,3.319v4.961
			c0,1.996,1.521,3.32,3.79,3.32h1.224C218.765,44.379,220.283,43.056,220.283,41.06z"/>
		<path fill-rule="evenodd" clip-rule="evenodd" fill="#333333" d="M195.22,40.307c0.017,0.088-0.035,0.159-0.157,0.159h-1.013
			c-0.139,0-0.192-0.071-0.175-0.159l0.314-1.377c0.245-1.042,0.367-2.172,0.367-2.172h0.053c0,0,0.122,1.13,0.332,2.172
			L195.22,40.307z M199.324,43.891l-3.65-10.789c-0.035-0.105-0.088-0.124-0.157-0.124h-1.904c-0.104,0-0.139,0.036-0.175,0.124
			l-3.65,10.789c-0.052,0.142,0.018,0.23,0.175,0.23h2.689c0.087,0,0.122-0.035,0.158-0.124l0.471-1.324
			c0.035-0.088,0.069-0.124,0.209-0.124h2.096c0.14,0,0.192,0.036,0.228,0.124l0.454,1.324c0.034,0.089,0.052,0.124,0.157,0.124
			h2.742C199.359,44.121,199.377,44.033,199.324,43.891z"/>
		<path fill-rule="evenodd" clip-rule="evenodd" fill="#333333" d="M174.023,43.945v-2.261c0-0.123-0.087-0.159-0.175-0.159h-4.296
			c-0.158,0-0.209-0.07-0.209-0.194v-1.36c0-0.123,0.052-0.194,0.209-0.194h3.528c0.087,0,0.174-0.036,0.174-0.159v-2.278
			c0-0.124-0.087-0.159-0.174-0.159h-3.528c-0.158,0-0.209-0.072-0.209-0.195v-1.219c0-0.123,0.052-0.193,0.209-0.193h4.296
			c0.105,0,0.175-0.035,0.175-0.16v-2.26c0-0.141-0.105-0.176-0.175-0.176h-7.266c-0.087,0-0.157,0.036-0.157,0.176v10.79
			c0,0.141,0.07,0.176,0.157,0.176h7.266C173.954,44.121,174.023,44.086,174.023,43.945z"/>
		<path fill-rule="evenodd" clip-rule="evenodd" fill="#333333" d="M164.985,43.891l-1.712-4.432
			c-0.052-0.158-0.069-0.282,0.087-0.387c0.769-0.495,1.275-1.343,1.275-2.437v-0.16c0-2.171-1.466-3.496-3.755-3.496h-4.873
			c-0.087,0-0.157,0.036-0.157,0.176v10.79c0,0.141,0.07,0.176,0.157,0.176h2.585c0.087,0,0.175-0.035,0.175-0.176v-3.974
			c0-0.123,0.052-0.194,0.21-0.194h1.205c0.07,0,0.123,0.036,0.158,0.124l1.606,4.096c0.035,0.071,0.087,0.124,0.157,0.124h2.725
			C165.002,44.121,165.037,44.015,164.985,43.891z M161.753,36.651c0,0.478-0.332,0.707-0.874,0.707h-1.903
			c-0.158,0-0.21-0.07-0.21-0.194v-1.395c0-0.123,0.052-0.193,0.21-0.193h1.903c0.576,0,0.874,0.265,0.874,0.742V36.651z"/>
		<path fill-rule="evenodd" clip-rule="evenodd" fill="#333333" d="M213.424,11.597c0,1.426-1.061,2.373-2.622,2.373h-0.854
			c-1.585,0-2.646-0.947-2.646-2.373V8.049c0-1.427,1.087-2.374,2.646-2.374h0.854c1.562,0,2.622,0.935,2.622,2.374v0.681h-2.024
			V8.049c0-0.304-0.244-0.53-0.598-0.53h-0.854c-0.354,0-0.646,0.265-0.646,0.53v3.548c0,0.316,0.22,0.518,0.646,0.518h0.854
			c0.379,0,0.598-0.215,0.598-0.518v-0.68h2.024V11.597z"/>
		<path fill-rule="evenodd" clip-rule="evenodd" fill="#333333" d="M163.114,13.7V5.978c0-0.101-0.049-0.125-0.122-0.125h-1.771
			c-0.049,0-0.098,0.024-0.123,0.075l-1.404,3.88c-0.097,0.277-0.159,0.505-0.159,0.505h-0.049c0,0-0.024-0.228-0.134-0.505
			l-1.453-3.88c-0.024-0.051-0.073-0.075-0.122-0.075h-1.819c-0.073,0-0.11,0.024-0.11,0.125V13.7c0,0.102,0.037,0.126,0.11,0.126
			h1.721c0.085,0,0.122-0.024,0.122-0.126v-1.656c0-1.2-0.11-2.299-0.11-2.299h0.037c0,0,0.11,0.529,0.305,1.099l0.647,1.908
			c0.037,0.101,0.146,0.126,0.22,0.126h1.184c0.073,0,0.172-0.025,0.208-0.126l0.648-1.87c0.195-0.569,0.304-1.137,0.304-1.137
			h0.038c0,0-0.086,1.137-0.086,2.325v1.63c0,0.102,0.025,0.126,0.111,0.126h1.685C163.065,13.826,163.114,13.802,163.114,13.7z"/>
		<path fill-rule="evenodd" clip-rule="evenodd" fill="#333333" d="M183.428,13.696v-1.619c0-0.089-0.061-0.114-0.122-0.114h-2.842
			c-0.11,0-0.146-0.05-0.146-0.138v-0.975c0-0.088,0.037-0.138,0.146-0.138h2.305c0.062,0,0.123-0.025,0.123-0.114V8.969
			c0-0.089-0.061-0.115-0.123-0.115h-2.305c-0.11,0-0.146-0.05-0.146-0.139V7.843c0-0.088,0.037-0.138,0.146-0.138h2.842
			c0.073,0,0.122-0.025,0.122-0.114V5.973c0-0.101-0.073-0.126-0.122-0.126h-4.917c-0.062,0-0.11,0.025-0.11,0.126v7.723
			c0,0.1,0.048,0.125,0.11,0.125h4.917C183.379,13.821,183.428,13.796,183.428,13.696z"/>
		<path fill-rule="evenodd" clip-rule="evenodd" fill="#333333" d="M177.185,11.495c0-1.414-0.684-2.033-2.112-2.501
			c-0.61-0.202-1.356-0.379-1.356-0.873c0-0.403,0.244-0.581,0.61-0.581h0.208c0.416,0,0.72,0.228,0.939,0.658
			c0.05,0.1,0.16,0.1,0.244,0.038l1.271-0.872c0.121-0.075,0.072-0.202,0.024-0.278c-0.159-0.278-0.354-0.531-0.587-0.733
			c-0.475-0.429-1.122-0.669-1.916-0.669h-0.184c-1.672,0-2.686,0.934-2.686,2.501c0,1.402,0.732,1.959,2.04,2.426
			c0.817,0.292,1.427,0.367,1.427,0.937c0,0.366-0.243,0.581-0.622,0.581h-0.379c-0.415,0-0.719-0.228-0.939-0.658
			c-0.049-0.1-0.159-0.1-0.244-0.038l-1.27,0.872c-0.122,0.076-0.073,0.19-0.024,0.266c0.134,0.239,0.293,0.454,0.488,0.644
			c0.489,0.493,1.172,0.771,2.015,0.771h0.378C176.232,13.985,177.185,13.051,177.185,11.495z"/>
		<path fill-rule="evenodd" clip-rule="evenodd" fill="#333333" d="M188.458,11.61c0,0.303-0.22,0.518-0.598,0.518h-0.854
			c-0.427,0-0.647-0.202-0.647-0.518V8.059c0-0.266,0.293-0.53,0.647-0.53h0.854c0.354,0,0.598,0.227,0.598,0.53V11.61z
			 M190.484,11.61V8.059c0-1.441-1.062-2.375-2.625-2.375h-0.854c-1.562,0-2.649,0.948-2.649,2.375v3.552
			c0,1.427,1.062,2.375,2.649,2.375h0.854C189.422,13.985,190.484,13.038,190.484,11.61z"/>
		<path fill-rule="evenodd" clip-rule="evenodd" fill="#333333" d="M170.65,11.615V5.978c0-0.101-0.037-0.125-0.11-0.125h-1.794
			c-0.061,0-0.11,0.024-0.11,0.125v5.638c0,0.315-0.183,0.518-0.61,0.518h-0.854c-0.452,0-0.647-0.203-0.647-0.518V5.978
			c0-0.101-0.061-0.125-0.11-0.125h-1.771c-0.073,0-0.109,0.024-0.109,0.125v5.638c0,1.427,1.05,2.375,2.637,2.375h0.854
			C169.587,13.99,170.65,13.042,170.65,11.615z"/>
		<path fill-rule="evenodd" clip-rule="evenodd" fill="#333333" d="M199.335,13.702V5.98c0-0.102-0.073-0.126-0.122-0.126h-1.722
			c-0.073,0-0.109,0.025-0.109,0.126v2.047c0,1.125,0.06,2.11,0.06,2.11h-0.036c0,0-0.098-0.278-0.269-0.606l-1.807-3.564
			c-0.037-0.076-0.086-0.113-0.159-0.113h-1.55c-0.062,0-0.11,0.025-0.11,0.126v7.721c0,0.102,0.049,0.126,0.11,0.126h1.758
			c0.073,0,0.122-0.025,0.122-0.126v-2.009c0-1.037-0.073-2.035-0.073-2.035h0.049c0,0,0.098,0.278,0.256,0.568l1.819,3.49
			c0.036,0.063,0.074,0.113,0.134,0.113h1.527C199.287,13.828,199.335,13.803,199.335,13.702z"/>
		<path fill-rule="evenodd" clip-rule="evenodd" fill="#333333" d="M244.15,13.702v-1.617c0-0.088-0.061-0.115-0.122-0.115h-3.003
			c-0.108,0-0.146-0.05-0.146-0.138V5.98c0-0.102-0.073-0.126-0.122-0.126h-1.807c-0.06,0-0.108,0.025-0.108,0.126v7.721
			c0,0.102,0.049,0.126,0.108,0.126h5.078C244.102,13.828,244.15,13.803,244.15,13.702z"/>
		<path fill-rule="evenodd" clip-rule="evenodd" fill="#333333" d="M230.67,13.702V5.98c0-0.102-0.073-0.126-0.122-0.126h-1.72
			c-0.073,0-0.112,0.025-0.112,0.126v2.047c0,1.125,0.062,2.11,0.062,2.11h-0.037c0,0-0.098-0.278-0.27-0.606l-1.807-3.564
			c-0.034-0.076-0.084-0.113-0.156-0.113h-1.553c-0.06,0-0.108,0.025-0.108,0.126v7.721c0,0.102,0.049,0.126,0.108,0.126h1.758
			c0.074,0,0.123-0.025,0.123-0.126v-2.009c0-1.037-0.074-2.035-0.074-2.035h0.05c0,0,0.097,0.278,0.257,0.568l1.818,3.49
			c0.038,0.063,0.073,0.113,0.135,0.113h1.525C230.621,13.828,230.67,13.803,230.67,13.702z"/>
		<path fill-rule="evenodd" clip-rule="evenodd" fill="#333333" d="M216.505,13.702V5.98c0-0.102-0.084-0.126-0.133-0.126h-1.794
			c-0.062,0-0.11,0.025-0.11,0.126v7.721c0,0.102,0.049,0.126,0.11,0.126h1.794C216.445,13.828,216.505,13.803,216.505,13.702z"/>
		<path fill-rule="evenodd" clip-rule="evenodd" fill="#333333" d="M235.058,11.098c0.011,0.063-0.024,0.114-0.111,0.114h-0.708
			c-0.098,0-0.133-0.05-0.122-0.114l0.22-0.985c0.171-0.746,0.258-1.554,0.258-1.554h0.035c0,0,0.087,0.809,0.233,1.554
			L235.058,11.098z M237.925,13.663l-2.55-7.721c-0.024-0.076-0.062-0.088-0.111-0.088h-1.332c-0.07,0-0.095,0.025-0.119,0.088
			l-2.553,7.721c-0.035,0.102,0.014,0.165,0.122,0.165h1.88c0.062,0,0.087-0.025,0.111-0.088l0.328-0.948
			c0.024-0.063,0.049-0.088,0.146-0.088h1.465c0.098,0,0.136,0.025,0.16,0.088l0.317,0.948c0.024,0.063,0.035,0.088,0.108,0.088
			h1.918C237.949,13.828,237.963,13.765,237.925,13.663z"/>
		<path fill-rule="evenodd" clip-rule="evenodd" fill="#333333" d="M221.606,11.617c0,0.303-0.22,0.518-0.6,0.518h-0.854
			c-0.426,0-0.646-0.201-0.646-0.518V8.066c0-0.266,0.293-0.531,0.646-0.531h0.854c0.355,0,0.6,0.228,0.6,0.531V11.617z
			 M223.633,11.617V8.066c0-1.441-1.063-2.377-2.626-2.377h-0.854c-1.563,0-2.648,0.948-2.648,2.377v3.551
			c0,1.427,1.062,2.376,2.648,2.376h0.854C222.569,13.993,223.633,13.044,223.633,11.617z"/>
		<path fill-rule="evenodd" clip-rule="evenodd" fill="#333333" d="M203.969,11.098c0.013,0.063-0.023,0.113-0.108,0.113h-0.709
			c-0.098,0-0.134-0.05-0.121-0.113l0.219-0.986c0.172-0.746,0.257-1.555,0.257-1.555h0.036c0,0,0.085,0.809,0.232,1.555
			L203.969,11.098z M206.839,13.663l-2.552-7.721c-0.024-0.076-0.062-0.088-0.11-0.088h-1.331c-0.072,0-0.098,0.025-0.121,0.088
			l-2.552,7.721c-0.037,0.102,0.013,0.165,0.122,0.165h1.88c0.062,0,0.085-0.025,0.11-0.088l0.329-0.948
			c0.024-0.063,0.049-0.09,0.146-0.09h1.465c0.098,0,0.134,0.027,0.159,0.09l0.317,0.948c0.024,0.063,0.037,0.088,0.109,0.088h1.917
			C206.862,13.828,206.875,13.765,206.839,13.663z"/>
		<path fill-rule="evenodd" clip-rule="evenodd" fill="#333333" d="M161.979,21.655c0,1.427-1.061,2.374-2.622,2.374h-0.854
			c-1.585,0-2.646-0.947-2.646-2.374v-3.549c0-1.427,1.086-2.374,2.646-2.374h0.854c1.561,0,2.622,0.934,2.622,2.374v0.68h-2.024
			v-0.68c0-0.303-0.244-0.531-0.598-0.531h-0.854c-0.354,0-0.646,0.266-0.646,0.531v3.549c0,0.316,0.22,0.518,0.646,0.518h0.854
			c0.378,0,0.598-0.214,0.598-0.518v-0.68h2.024V21.655z"/>
		<path fill-rule="evenodd" clip-rule="evenodd" fill="#333333" d="M182.804,17.702v-1.618c0-0.102-0.072-0.126-0.109-0.126h-5.334
			c-0.061,0-0.122,0.025-0.122,0.126v1.618c0,0.088,0.061,0.114,0.122,0.114h1.495c0.134,0,0.159,0.05,0.159,0.138v5.853
			c0,0.102,0.049,0.127,0.11,0.127h1.794c0.061,0,0.122-0.025,0.122-0.127v-5.853c0-0.088,0.024-0.138,0.146-0.138h1.508
			C182.756,17.816,182.804,17.79,182.804,17.702z"/>
		<path fill-rule="evenodd" clip-rule="evenodd" fill="#333333" d="M176.014,23.808v-7.724c0-0.102-0.073-0.126-0.122-0.126h-1.721
			c-0.073,0-0.11,0.025-0.11,0.126v2.048c0,1.125,0.061,2.111,0.061,2.111h-0.037c0,0-0.098-0.278-0.269-0.607l-1.807-3.564
			c-0.037-0.076-0.085-0.114-0.159-0.114h-1.55c-0.061,0-0.11,0.025-0.11,0.126v7.724c0,0.102,0.049,0.127,0.11,0.127h1.758
			c0.073,0,0.122-0.025,0.122-0.127v-2.01c0-1.036-0.073-2.036-0.073-2.036h0.05c0,0,0.097,0.278,0.255,0.57l1.819,3.488
			c0.037,0.063,0.073,0.115,0.134,0.115h1.526C175.965,23.935,176.014,23.909,176.014,23.808z"/>
		<path fill-rule="evenodd" clip-rule="evenodd" fill="#333333" d="M195.43,21.656c0,0.304-0.22,0.519-0.598,0.519h-0.854
			c-0.427,0-0.647-0.202-0.647-0.519v-3.551c0-0.266,0.293-0.531,0.647-0.531h0.854c0.354,0,0.598,0.228,0.598,0.531V21.656z
			 M197.457,21.656v-3.551c0-1.441-1.062-2.377-2.625-2.377h-0.854c-1.562,0-2.649,0.948-2.649,2.377v3.551
			c0,1.429,1.062,2.377,2.649,2.377h0.854C196.395,24.033,197.457,23.085,197.457,21.656z"/>
		<path fill-rule="evenodd" clip-rule="evenodd" fill="#333333" d="M188.146,18.587c0,0.342-0.232,0.505-0.61,0.505h-1.331
			c-0.11,0-0.146-0.05-0.146-0.138v-1c0-0.088,0.037-0.138,0.146-0.138h1.331c0.403,0,0.61,0.188,0.61,0.53V18.587z M190.405,23.77
			l-1.196-3.173c-0.037-0.113-0.049-0.201,0.061-0.278c0.537-0.353,0.891-0.959,0.891-1.744v-0.113c0-1.556-1.025-2.503-2.625-2.503
			h-3.406c-0.061,0-0.11,0.025-0.11,0.126v7.724c0,0.102,0.049,0.127,0.11,0.127h1.807c0.061,0,0.122-0.025,0.122-0.127v-2.845
			c0-0.088,0.037-0.138,0.146-0.138h0.842c0.049,0,0.085,0.025,0.11,0.088l1.123,2.932c0.024,0.051,0.061,0.09,0.11,0.09h1.904
			C190.417,23.935,190.441,23.857,190.405,23.77z"/>
		<path fill-rule="evenodd" clip-rule="evenodd" fill="#333333" d="M168.658,23.808v-1.619c0-0.088-0.061-0.113-0.122-0.113h-3.003
			c-0.11,0-0.146-0.05-0.146-0.139v-0.974c0-0.088,0.037-0.138,0.146-0.138h2.466c0.061,0,0.122-0.026,0.122-0.115v-1.631
			c0-0.088-0.061-0.113-0.122-0.113h-2.466c-0.11,0-0.146-0.05-0.146-0.139v-0.873c0-0.088,0.037-0.138,0.146-0.138h3.003
			c0.073,0,0.122-0.026,0.122-0.114v-1.618c0-0.102-0.073-0.126-0.122-0.126h-5.078c-0.061,0-0.11,0.025-0.11,0.126v7.724
			c0,0.102,0.049,0.127,0.11,0.127h5.078C168.609,23.935,168.658,23.909,168.658,23.808z"/>
		<path fill-rule="evenodd" clip-rule="evenodd" fill="#333333" d="M244.15,23.808v-1.619c0-0.088-0.061-0.113-0.122-0.113h-3.003
			c-0.111,0-0.146-0.05-0.146-0.139v-0.974c0-0.088,0.035-0.138,0.146-0.138h2.466c0.062,0,0.122-0.026,0.122-0.115v-1.631
			c0-0.088-0.061-0.113-0.122-0.113h-2.466c-0.111,0-0.146-0.05-0.146-0.139v-0.873c0-0.088,0.035-0.138,0.146-0.138h3.003
			c0.073,0,0.122-0.026,0.122-0.114v-1.618c0-0.102-0.073-0.126-0.122-0.126h-5.078c-0.06,0-0.111,0.025-0.111,0.126v7.724
			c0,0.102,0.052,0.127,0.111,0.127h5.078C244.102,23.935,244.15,23.909,244.15,23.808z"/>
		<path fill-rule="evenodd" clip-rule="evenodd" fill="#333333" d="M237.388,17.702v-1.618c0-0.102-0.073-0.126-0.108-0.126h-5.336
			c-0.062,0-0.122,0.025-0.122,0.126v1.618c0,0.088,0.06,0.114,0.122,0.114h1.495c0.135,0,0.159,0.05,0.159,0.138v5.853
			c0,0.102,0.049,0.127,0.108,0.127h1.797c0.059,0,0.121-0.025,0.121-0.127v-5.853c0-0.088,0.024-0.138,0.146-0.138h1.509
			C237.339,17.816,237.388,17.79,237.388,17.702z"/>
		<path fill-rule="evenodd" clip-rule="evenodd" fill="#333333" d="M213.866,23.808v-1.619c0-0.088-0.062-0.113-0.122-0.113h-3.003
			c-0.11,0-0.146-0.05-0.146-0.139v-0.974c0-0.088,0.036-0.138,0.146-0.138h2.466c0.061,0,0.122-0.026,0.122-0.115v-1.631
			c0-0.088-0.062-0.113-0.122-0.113h-2.466c-0.11,0-0.146-0.05-0.146-0.139v-0.873c0-0.088,0.036-0.138,0.146-0.138h3.003
			c0.073,0,0.122-0.026,0.122-0.114v-1.618c0-0.102-0.073-0.126-0.122-0.126h-5.078c-0.062,0-0.11,0.025-0.11,0.126v7.724
			c0,0.102,0.049,0.127,0.11,0.127h5.078C213.817,23.935,213.866,23.909,213.866,23.808z"/>
		<path fill-rule="evenodd" clip-rule="evenodd" fill="#333333" d="M206.996,21.456v-2.995c0-1.556-1.025-2.503-2.624-2.503h-3.406
			c-0.061,0-0.11,0.025-0.11,0.126v7.724c0,0.102,0.049,0.127,0.11,0.127h3.406C205.971,23.935,206.996,22.985,206.996,21.456z
			 M204.982,21.557c0,0.265-0.269,0.519-0.61,0.519h-1.331c-0.109,0-0.146-0.05-0.146-0.139v-3.982c0-0.088,0.036-0.138,0.146-0.138
			h1.331c0.329,0,0.61,0.278,0.61,0.53V21.557z"/>
		<path fill-rule="evenodd" clip-rule="evenodd" fill="#333333" d="M228.974,18.587c0,0.342-0.233,0.505-0.61,0.505h-1.331
			c-0.109,0-0.146-0.05-0.146-0.138v-1c0-0.088,0.037-0.138,0.146-0.138h1.331c0.401,0,0.61,0.188,0.61,0.53V18.587z M231.231,23.77
			l-1.197-3.173c-0.035-0.114-0.049-0.202,0.062-0.278c0.537-0.353,0.891-0.96,0.891-1.744v-0.113c0-1.556-1.025-2.503-2.624-2.503
			h-3.407c-0.06,0-0.108,0.025-0.108,0.126v7.724c0,0.102,0.049,0.127,0.108,0.127h1.807c0.062,0,0.123-0.025,0.123-0.127v-2.845
			c0-0.088,0.037-0.138,0.146-0.138h0.843c0.049,0,0.085,0.025,0.108,0.088l1.123,2.932c0.024,0.051,0.062,0.09,0.111,0.09h1.904
			C231.244,23.935,231.269,23.858,231.231,23.77z"/>
		<path fill-rule="evenodd" clip-rule="evenodd" fill="#333333" d="M220.93,21.204c0.013,0.062-0.022,0.113-0.109,0.113h-0.708
			c-0.098,0-0.133-0.051-0.122-0.113l0.22-0.986c0.171-0.746,0.258-1.555,0.258-1.555h0.035c0,0,0.085,0.809,0.231,1.555
			L220.93,21.204z M223.799,23.77l-2.55-7.724c-0.026-0.075-0.062-0.088-0.111-0.088h-1.331c-0.071,0-0.098,0.025-0.12,0.088
			l-2.553,7.724c-0.035,0.101,0.014,0.165,0.122,0.165h1.88c0.062,0,0.087-0.025,0.111-0.09l0.328-0.947
			c0.024-0.063,0.049-0.089,0.146-0.089h1.465c0.098,0,0.134,0.026,0.16,0.089l0.315,0.947c0.026,0.064,0.037,0.09,0.11,0.09h1.918
			C223.823,23.935,223.837,23.87,223.799,23.77z"/>
		<path fill-rule="evenodd" clip-rule="evenodd" fill="#333333" d="M150,0h100v50H150V0z M247.342,29.788H152.66v17.551h94.682
			V29.788z M152.659,27.129h94.683V2.661l-94.682,0L152.659,27.129z"/>
	</g>
</g>
</svg>
